<?xml version="1.0" encoding="UTF-8" standalone="no"?>
<!-- Created with Inkscape (http://www.inkscape.org/) -->

<svg
   version="1.1"
   id="svg2"
   width="64"
   height="64"
   viewBox="0 0 64 64"
   sodipodi:docname="Icon.svg"
   xml:space="preserve"
   inkscape:version="1.2.2 (b0a8486541, 2022-12-01)"
   inkscape:export-filename="Icon.png"
   inkscape:export-xdpi="192"
   inkscape:export-ydpi="192"
   xmlns:inkscape="http://www.inkscape.org/namespaces/inkscape"
   xmlns:sodipodi="http://sodipodi.sourceforge.net/DTD/sodipodi-0.dtd"
   xmlns="http://www.w3.org/2000/svg"
   xmlns:svg="http://www.w3.org/2000/svg"><defs
     id="defs6"><clipPath
       clipPathUnits="userSpaceOnUse"
       id="clipPath3427"><g
         id="g3431"><g
           inkscape:label="Clip"
           id="use3429"
           clip-path="url(#clipPath3427)"><path
             d="m 132.96198,193.43668 a 27.320147,27.320147 0 0 1 -3.15284,-0.17495 C 111.8589,191.21067 94.860241,176.33875 85.984682,159.1614 c 0.03395,0.0273 0.06733,0.0555 0.101575,0.0826 l 2.147457,1.69742 1.57599,-2.2381 c 0.447159,-0.63534 0.82641,-1.34176 1.160484,-2.11206 2.281259,5.03183 6.22397,9.9477 11.614332,13.26054 l 2.18976,1.3455 1.36219,-2.17882 c 0.71995,-1.15185 1.24019,-2.50398 1.6439,-4.03306 2.84553,4.78955 7.3669,9.28042 13.16673,11.97258 l 2.33104,1.08193 1.09977,-2.32299 c 0.044,-0.0929 0.0858,-0.18761 0.12719,-0.28256 2.81474,3.77869 6.69731,7.17497 11.43161,9.37249 l 2.33133,1.08251 1.09977,-2.3227 c 0.39019,-0.8241 0.67649,-1.73137 0.89317,-2.70942 2.42571,3.0858 5.63207,5.91263 9.44155,7.98325 -5.35238,2.84726 -11.04948,4.58554 -16.74055,4.5959 z m 40.4279,-5.70114 c -6.20959,-1.40708 -11.76311,-5.31123 -14.3957,-8.99612 -1.53571,-2.14947 -1.92906,-4.03278 -1.67124,-5.00335 0.25753,-0.97086 0.99474,-1.91841 4.11651,-2.45448 1.08912,-0.18703 2.31723,0.21754 3.82445,1.46578 1.5075,1.24825 3.08695,3.27572 4.41922,5.57079 1.33198,2.29449 2.43491,4.85285 3.15054,7.12174 0.26329,0.83447 0.40687,1.56822 0.55622,2.29564 z m -20.44904,-3.0904 c -5.66459,-2.9074 -10.07316,-8.07044 -11.7067,-12.29399 -0.28832,-0.74584 -0.48025,-1.44075 -0.59564,-2.07322 -0.0386,-0.38558 -0.0829,-0.77116 -0.13236,-1.15732 -0.0354,-0.89576 0.10877,-1.59354 0.35393,-2.03092 0.49089,-0.87619 1.44017,-1.61052 4.59704,-1.35327 1.10121,0.0898 2.19034,0.7867 3.34017,2.37046 1.14955,1.58404 2.17537,3.94069 2.89474,6.49445 0.71937,2.55404 1.15099,5.30606 1.28047,7.6817 0.0472,0.87388 0.005,1.62001 -0.0316,2.36211 z m -17.59516,-6.10628 c -4.40828,-2.89128 -7.79133,-7.22706 -9.49421,-11.11567 0.0512,-2.45765 -0.12316,-5.11614 -0.56571,-7.72112 -8.7e-4,-0.006 -0.002,-0.0112 -0.003,-0.017 0.59708,-0.76052 1.66433,-1.30494 4.62813,-0.74239 1.08538,0.20602 2.0948,1.01431 3.06968,2.71115 0.97489,1.69713 1.74519,4.1496 2.18976,6.76551 0.44428,2.61562 0.58153,5.39871 0.4578,7.77435 -0.0455,0.87389 -0.16718,1.61138 -0.28199,2.34514 z m -14.99047,-7.84974 c -5.32419,-3.49181 -9.15985,-9.09281 -10.33588,-13.46599 -0.68599,-2.55145 -0.39507,-4.4526 0.18589,-5.27153 0.58125,-0.81921 1.60275,-1.44909 4.71473,-0.85835 1.08567,0.20603 2.0948,1.01489 3.06969,2.71173 0.97518,1.69685 1.74519,4.14903 2.18976,6.76494 0.44428,2.61562 0.58153,5.39842 0.4578,7.77406 -0.0455,0.87418 -0.16718,1.61138 -0.28199,2.34514 z m 49.69824,-0.55104 a 18.691188,18.691188 0 0 0 -1.48593,-1.37974 c -2.21335,-1.83295 -5.00795,-3.09587 -8.00483,-2.58138 a 15.357062,15.357062 0 0 0 -1.52737,0.34242 c -0.0607,-0.15913 -0.11308,-0.31163 -0.15682,-0.45608 2.84381,-1.11704 5.56445,-2.57534 7.85348,-4.11824 0.14042,-0.0947 0.27365,-0.18905 0.41062,-0.28372 4.11823,0.4181 9.04159,2.13451 13.04214,5.1688 -0.65319,0.35393 -1.30724,0.71505 -2.11552,1.05086 -2.19695,0.91215 -4.86552,1.71497 -7.47912,2.1722 -0.17956,0.0314 -0.35796,0.057 -0.53665,0.0849 z m -67.32793,-6.58077 c -4.882492,-4.08687 -8.04138,-10.09618 -8.700896,-14.57669 -0.384718,-2.61361 0.12517,-4.46814 0.797635,-5.21398 0.672177,-0.74613 1.760436,-1.25256 4.782356,-0.30415 1.054305,0.33091 1.962435,1.25112 2.733595,3.05012 0.77116,1.79842 1.2517,4.3234 1.38896,6.97326 0.13725,2.64958 -0.0501,5.4295 -0.44889,7.77493 -0.14704,0.86266 -0.35335,1.58117 -0.55247,2.29651 z m 48.21231,-0.74671 c -1.40823,-1.21602 -3.10018,-2.07724 -5.06032,-2.23694 -0.22329,-0.0181 -0.4437,-0.0282 -0.66325,-0.0371 -1.19818,-1.65858 -1.13718,-2.61965 -0.80253,-3.38419 0.40284,-0.92022 1.88302,-2.14861 4.42296,-2.8746 4.35419,-1.24479 11.1315,-0.84252 16.86716,1.92244 -0.57003,0.47651 -1.13948,0.9605 -1.86547,1.45025 -1.9725,1.32939 -4.42842,2.64525 -6.8996,3.6118 -2.0971,0.82008 -4.21031,1.37456 -5.99895,1.54808 z m 24.93501,-4.36857 a 30.741748,30.741748 0 0 0 -3.88775,-1.24249 c 0.0322,-0.0472 0.0662,-0.0938 0.0978,-0.141 l 1.42406,-2.13911 -2.12847,-1.44046 c -5.87349,-3.97609 -12.83294,-5.46288 -18.8457,-5.05198 0.33925,-0.51392 0.63649,-1.03359 0.87906,-1.56391 l 1.06841,-2.33736 -2.32903,-1.08654 c -5.1993,-2.42484 -10.84288,-3.13011 -15.91817,-2.59404 0.95647,-1.48535 1.67469,-2.92236 2.04732,-4.36627 l 0.64226,-2.48844 -2.48326,-0.66182 c -4.74898,-1.26436 -9.59809,-1.22954 -13.973,-0.30271 0.6903,-1.1812 1.21602,-2.33881 1.51585,-3.50073 l 0.64254,-2.48844 -2.48354,-0.66181 c -4.99501,-1.32968 -10.10079,-1.22178 -14.64863,-0.15107 0.92079,-1.58088 1.58347,-3.07515 1.84446,-4.60885 l 0.45751,-2.6887 -2.70885,-0.31739 c -8.438469,-0.99043 -16.741411,1.93021 -21.764325,6.09448 -1.176022,0.9746 -2.220544,2.04675 -2.996598,3.22795 C 87.50111,110.89959 100.37146,92.372706 100.37146,92.372706 L 90.162482,72.57657 c 14.242328,-7.353089 30.268118,-11.138115 49.078148,-9.355809 -0.50845,9.23553 4.74005,16.060316 9.50198,21.441186 -4.19823,0.280554 -8.62867,0.640525 -12.90431,1.457152 -4.7507,0.907842 -9.36329,2.400098 -13.23722,5.188655 -3.87423,2.78827 -6.91543,6.936144 -8.33201,12.574546 l 5.02349,1.26235 c 1.14811,-4.56943 3.3442,-7.481426 6.3336,-9.633199 2.98969,-2.151772 6.86651,-3.480013 11.18473,-4.304984 7.34215,-1.402767 15.75415,-1.274144 22.89143,-2.199251 7.69666,0.581249 16.42173,-0.74843 18.25496,2.473474 4.47965,7.872761 1.45428,18.39567 -0.98985,26.6143 5.31268,0.17553 8.10814,0.4863 11.14589,1.42924 -2.47664,9.92728 -6.29015,15.79243 -12.57541,21.14941 0.46874,5.8853 1.20681,12.09977 0.33493,17.76839 z m -41.35069,-2.88639 c -1.0451,-0.82641 -2.2568,-1.43816 -3.64633,-1.70174 -1.48104,-0.28113 -2.89474,-0.33206 -4.19363,-0.17207 -0.688,-0.94324 -0.73922,-1.65138 -0.59851,-2.26716 0.90611,-0.63333 1.78777,-1.32364 2.64037,-2.05308 a 40.311065,40.311065 0 0 0 2.07034,-1.90718 c 4.14499,-1.65426 10.45097,-2.14401 16.18088,-0.43047 -0.48745,0.56024 -0.97316,1.12796 -1.61254,1.7259 -1.7377,1.62462 -3.95537,3.31197 -6.24267,4.65661 -1.55009,0.9113 -3.13558,1.6534 -4.59791,2.14919 z m -47.734941,-2.82798 c -3.500156,-4.00544 -5.586322,-9.36847 -5.807887,-13.29823 -0.135241,-2.40068 0.475646,-4.05033 1.006539,-4.57979 0.531181,-0.52945 1.177173,-0.88194 3.587919,0.17639 0.713612,0.31336 1.416291,1.15185 1.936537,2.83374 0.520247,1.68188 0.745265,4.01695 0.667574,6.43661 -0.07712,2.41967 -0.440829,4.93285 -0.951868,7.03139 -0.12891,0.52945 -0.289473,0.92942 -0.438814,1.39989 z M 120.59289,148.671 c -1.25659,-1.31213 -2.81906,-2.30773 -4.70668,-2.66626 -1.30033,-0.2466 -2.54973,-0.31797 -3.71453,-0.22416 0.001,-0.0403 0.003,-0.0806 0.006,-0.12028 0.0489,-0.63132 0.46356,-1.52017 1.30435,-2.47175 0.31825,-0.25494 0.63334,-0.51477 0.9441,-0.78065 a 39.555441,39.555441 0 0 0 1.14034,-1.01978 c 3.72806,-2.55088 10.16467,-4.33923 16.40504,-3.62273 -0.38155,0.63707 -0.76023,1.28162 -1.28479,1.982 -1.42579,1.90431 -3.31254,3.95364 -5.32908,5.67869 -1.57484,1.34723 -3.23686,2.48527 -4.76451,3.24492 z m -14.87192,-6.68005 c -1.11876,-1.57599 -2.61764,-2.85963 -4.56511,-3.4708 -1.04826,-0.32919 -2.076383,-0.53435 -3.063356,-0.61866 0.399969,-0.96539 1.367662,-2.20127 3.019616,-3.36376 3.70331,-2.60642 10.23545,-4.4526 16.56129,-3.72633 -0.38184,0.63736 -0.76023,1.28191 -1.28479,1.98258 -1.42608,1.90402 -3.31341,3.95364 -5.32966,5.6784 -1.77396,1.51758 -3.66014,2.77532 -5.3377,3.51857 z m -13.986525,-7.52056 c -0.858062,-1.78403 -2.156952,-3.34362 -4.078527,-4.187 -0.145025,-0.0639 -0.290625,-0.11942 -0.435937,-0.17697 a 10.052732,10.052732 0 0 1 1.407083,-1.41571 c 3.042638,-2.5224 8.616874,-4.75848 14.287796,-5.02177 -0.20632,0.37321 -0.3476,0.70095 -0.59995,1.09344 -1.13287,1.75958 -2.680369,3.70475 -4.375775,5.39066 -1.695406,1.68562 -3.553389,3.10709 -5.183476,3.89408 a 9.3284729,9.3284729 0 0 1 -1.021214,0.42299 z m -14.006378,-2.60727 -9.619385,-6.15635 2.792298,-4.36282 11.104448,7.10677 a 8.7670783,8.7670783 0 0 0 -0.508449,1.04568 c -1.218609,0.27048 -2.308307,0.82756 -3.168671,1.68562 a 7.6339303,7.6339303 0 0 0 -0.600241,0.6811 z"
             fill="#ffffff"
             fill-opacity="1"
             id="path3433"
             style="fill:#959a9d;fill-opacity:1;stroke-width:0.287747" /></g></g></clipPath></defs><sodipodi:namedview
     id="namedview4"
     pagecolor="#505050"
     bordercolor="#eeeeee"
     borderopacity="1"
     inkscape:showpageshadow="0"
     inkscape:pageopacity="0"
     inkscape:pagecheckerboard="0"
     inkscape:deskcolor="#505050"
     showgrid="false"
     inkscape:zoom="9.1270403"
     inkscape:cx="41.196268"
     inkscape:cy="36.923251"
     inkscape:window-width="1920"
     inkscape:window-height="1048"
     inkscape:window-x="0"
     inkscape:window-y="0"
     inkscape:window-maximized="1"
     inkscape:current-layer="g2568"
     showguides="true"><inkscape:page
       x="0"
       y="0"
       id="page8"
       width="64"
       height="64" /><sodipodi:guide
       position="0,64"
       orientation="1,0"
       id="guide2581"
       inkscape:locked="false" /><sodipodi:guide
       position="0,64"
       orientation="0,-1"
       id="guide2583"
       inkscape:locked="false" /></sodipodi:namedview><g
     id="g10"
     inkscape:groupmode="layer"
     inkscape:label="Page 1"
     transform="matrix(1.3333333,0,0,-1.3333333,0,491.52)"><rect
       style="fill:none;fill-opacity:1;stroke-width:14.1732;stroke-miterlimit:1;paint-order:markers fill stroke"
       id="rect2637"
       width="48"
       height="48"
       x="0"
       y="-368.64001"
       transform="scale(1,-1)" /><g
       id="g2568"
       transform="matrix(0.10209237,0,0,0.10209237,11.28898,326.7295)"><path
         d="m 29.8809,200.689 v 69.72 c 0,26.109 10.3925,50.937 28.8425,69.388 18.45,18.45 43.2786,28.842 69.3876,28.842 26.108,0 50.937,-10.392 69.387,-28.842 18.45,-18.45 28.843,-43.279 28.843,-69.388 v -69.72 c 0,-8.147 -6.611,-14.757 -14.757,-14.757 -8.147,0 -14.757,6.61 -14.757,14.757 v 69.72 c 0,18.275 -7.287,35.609 -20.198,48.52 -12.91,12.91 -30.244,20.197 -48.519,20.197 -18.275,0 -35.608,-7.287 -48.5182,-20.197 -12.9102,-12.911 -20.1973,-30.245 -20.1973,-48.52 v -69.72 c 0,-8.147 -6.6097,-14.757 -14.7566,-14.757 -8.1473,0 -14.757,6.61 -14.757,14.757"
         style="fill:#959a9d;fill-opacity:1;fill-rule:evenodd;stroke:none;stroke-width:0.1"
         id="path14" /><path
         id="path16"
         style="fill:#ecc10c;fill-opacity:1;fill-rule:nonzero;stroke:none;stroke-width:0.1"
         d="M 128.1065 256.21483 C 92.729937 256.21483 60.709366 241.87721 37.526189 218.69423 C 14.342612 195.51026 0.0055935962 163.48989 0.0055935962 128.11392 C 0.0055935962 92.737956 14.342612 60.703236 37.526189 37.51926 C 60.709366 14.336483 92.729937 -0.0013356827 128.1065 -0.0013356827 C 163.48147 -0.0013356827 195.51819 14.336483 218.70116 37.51926 C 241.88514 60.703236 256.22176 92.737956 256.22176 128.11392 C 256.22176 163.48989 241.88514 195.51026 218.70116 218.69423 C 195.51819 241.87721 163.48147 256.21483 128.1065 256.21483 z M 132.9562 193.44137 C 138.64724 193.43101 144.34822 191.68285 149.70057 188.83559 C 145.89112 186.76497 142.68515 183.94375 140.25944 180.85798 C 140.04276 181.83603 139.76004 182.74569 139.36985 183.56979 L 138.26504 185.8942 L 135.94063 184.80374 C 131.20633 182.60622 127.31984 179.21304 124.5051 175.43435 C 124.46371 175.5293 124.41996 175.62841 124.37596 175.72131 L 123.27115 178.04573 L 120.94674 176.95526 C 115.14694 174.2631 110.6206 169.77837 107.77507 164.98885 C 107.37136 166.5179 106.85933 167.86885 106.13938 169.0207 L 104.7763 171.20163 L 102.58102 169.85289 C 97.19067 166.54008 93.254561 161.62694 90.973308 156.59514 C 90.639237 157.36544 90.258259 158.06899 89.811103 158.70433 L 88.232798 160.94265 L 86.080565 159.24956 C 86.046323 159.22246 86.014078 159.19077 85.980128 159.16347 C 94.85566 176.34076 111.86376 191.20378 129.81394 193.25484 A 27.320147 27.320147 0 0 0 132.9562 193.44137 z M 173.38948 187.73077 C 173.24013 187.00338 173.09319 186.26953 172.8299 185.43506 C 172.11427 183.16617 171.01962 180.61283 169.68764 178.31834 C 168.35537 176.02327 166.77589 173.99948 165.26839 172.75123 C 163.76117 171.50299 162.52654 171.10071 161.43742 171.28771 C 158.31565 171.82378 157.57701 172.7704 157.31948 173.74126 C 157.06166 174.71183 157.46251 176.58497 158.99822 178.73444 C 161.63081 182.41933 167.17992 186.32372 173.38948 187.73077 z M 152.94327 184.64591 C 152.97987 183.90381 153.01917 183.15233 152.97197 182.27845 C 152.84249 179.90281 152.41432 177.15619 151.69498 174.60215 C 150.97561 172.04842 149.94616 169.68645 148.79664 168.10241 C 147.64681 166.51865 146.55471 165.82475 145.4535 165.73495 C 142.29663 165.4777 141.35296 166.2075 140.86207 167.08369 C 140.61691 167.52107 140.46796 168.22537 140.50336 169.12113 C 140.55282 169.50729 140.5939 169.89776 140.6325 170.28334 C 140.74789 170.91581 140.9468 171.60364 141.23512 172.34948 C 142.86866 176.57303 147.27871 181.73851 152.94327 184.64591 z M 135.35235 178.53357 C 135.46716 177.79981 135.57947 177.0687 135.62497 176.19481 C 135.7487 173.81917 135.61011 171.03369 135.16583 168.41807 C 134.72126 165.80216 133.95979 163.35719 132.9849 161.66006 C 132.01002 159.96322 130.99976 159.15427 129.91438 158.94825 C 126.95058 158.3857 125.87698 158.91951 125.2799 159.68 C 125.2809 159.6858 125.27903 159.7027 125.2799 159.7087 C 125.72245 162.31368 125.90503 164.97042 125.85383 167.42804 C 127.55671 171.31665 130.9441 175.64229 135.35235 178.53357 z M 120.35846 170.68509 C 120.47327 169.95133 120.58558 169.22051 120.63108 168.34633 C 120.75481 165.97069 120.63056 163.18521 120.18628 160.56959 C 119.74171 157.95371 118.96619 155.50843 117.99101 153.81158 C 117.01612 152.11474 116.00616 151.3058 114.92049 151.09977 C 111.80851 150.50903 110.78117 151.12713 110.19992 151.94631 C 109.61896 152.76524 109.32741 154.67501 110.0134 157.22646 C 111.18943 161.59961 115.0343 167.19328 120.35846 170.68509 z M 170.04635 170.13986 C 170.22504 170.11196 170.41202 170.08517 170.59158 170.05377 C 173.20518 169.59654 175.87008 168.79934 178.067 167.88719 C 178.87528 167.55138 179.53735 167.17935 180.19054 166.82542 C 176.18999 163.79113 171.26621 162.07816 167.14801 161.66006 C 167.01104 161.75473 166.87233 161.85232 166.73191 161.94702 C 164.44288 163.48992 161.72724 164.94792 158.88343 166.06496 C 158.92717 166.20941 158.98056 166.36498 159.04126 166.52411 A 15.357062 15.357062 0 0 1 160.56218 166.17975 C 163.55903 165.66526 166.35513 166.92948 168.56848 168.76243 A 18.691188 18.691188 0 0 1 170.04635 170.13986 z M 102.7245 163.55402 C 102.92362 162.83868 103.13704 162.12097 103.28408 161.25831 C 103.68287 158.91288 103.86613 156.13115 103.72888 153.48157 C 103.59162 150.83174 103.10826 148.30676 102.3371 146.50834 C 101.56594 144.70934 100.66524 143.79743 99.610937 143.46652 C 96.589026 142.51811 95.490808 143.0217 94.818631 143.76783 C 94.146169 144.51367 93.644764 146.36265 94.029479 148.97623 C 94.688995 153.45674 97.842026 159.46718 102.7245 163.55402 z M 150.93452 162.80792 C 152.72316 162.6344 154.83498 162.07839 156.93208 161.25831 C 159.40323 160.29176 161.86107 158.98627 163.83357 157.65691 C 164.55956 157.16716 165.12881 156.6699 165.69884 156.19339 C 159.96318 153.42843 153.19387 153.02594 148.83968 154.27073 C 146.29974 154.99672 144.80892 156.2345 144.40608 157.15472 C 144.07143 157.91926 144.0114 158.88232 145.20958 160.5409 C 145.42913 160.5498 145.66066 160.55149 145.88395 160.56959 C 147.84406 160.72929 149.52629 161.5919 150.93452 162.80792 z M 175.87173 158.44606 C 176.74361 152.77744 176.01046 146.55391 175.54172 140.66861 C 181.82695 135.31166 185.63412 129.44659 188.11076 119.51934 C 185.07301 118.5764 182.27487 118.27439 176.96219 118.09886 C 179.40632 109.88026 182.43184 99.355652 177.95222 91.482915 C 176.11899 88.26102 167.39791 89.581919 159.70128 89.000673 C 152.56403 89.925777 144.15799 89.807535 136.81587 91.210299 C 132.49768 92.035267 128.61395 93.362999 125.62426 95.514765 C 122.63486 97.666532 120.4448 100.57302 119.29669 105.14242 L 114.27482 103.87978 C 115.6914 98.241387 118.72256 94.099 122.59679 91.310736 C 126.47069 88.522188 131.08952 87.02452 135.84019 86.116681 C 140.11583 85.300057 144.54104 84.948062 148.73924 84.667511 C 143.97734 79.286656 138.73227 72.452422 139.24072 63.216922 C 120.43075 61.434619 104.39775 65.218896 90.15546 72.571961 L 100.37139 92.372505 C 100.37139 92.372505 87.49764 110.8957 82.321332 127.92739 C 83.097383 126.74622 84.144091 125.67364 85.32011 124.69904 C 90.343009 120.5348 98.647915 117.62497 107.08636 118.6154 L 109.79817 118.93106 L 109.33903 121.61418 C 109.07804 123.14788 108.4089 124.63908 107.48811 126.21996 C 112.03595 125.14925 117.14266 125.04811 122.13764 126.37779 L 124.61988 127.0378 L 123.98856 129.52005 C 123.68873 130.68197 123.15795 131.83981 122.46765 133.02101 C 126.84256 132.09418 131.69384 132.05799 136.44282 133.32232 L 138.92506 133.99669 L 138.27939 136.47893 C 137.90676 137.92284 137.18406 139.35544 136.22759 140.84079 C 141.30288 140.30472 146.95482 141.01298 152.15412 143.43782 L 154.47853 144.52828 L 153.41676 146.86704 C 153.17419 147.39736 152.86642 147.91708 152.52717 148.431 C 158.53993 148.0201 165.50727 149.50551 171.38073 153.48157 L 173.50427 154.9164 L 172.0838 157.05428 C 172.0522 157.10148 172.01556 157.15056 171.98336 157.19776 A 30.741748 30.741748 0 0 1 175.87173 158.44606 z M 134.52016 155.56207 C 135.98246 155.06628 137.57587 154.32113 139.12593 153.40983 C 141.41323 152.06519 143.62971 150.37128 145.36741 148.74666 C 146.00679 148.14872 146.48696 147.58511 146.97441 147.02487 C 141.24453 145.31136 134.93458 145.80106 130.78962 147.45532 A 40.311065 40.311065 0 0 1 128.72348 149.36363 C 127.87088 150.09307 126.98951 150.7821 126.0834 151.41543 C 125.94269 152.03121 125.99803 152.73921 126.68603 153.68245 C 127.98492 153.52246 129.39467 153.5735 130.87571 153.85463 C 132.26524 154.11821 133.47506 154.73566 134.52016 155.56207 z M 86.783628 152.72112 C 86.932969 152.25065 87.099513 151.85879 87.228423 151.32934 C 87.739462 149.2308 88.098286 146.71838 88.175406 144.29871 C 88.253097 141.87908 88.035634 139.53824 87.515387 137.85636 C 86.995144 136.17447 86.291987 135.34312 85.578378 135.02976 C 83.167638 133.97143 82.522501 134.31379 81.991323 134.84324 C 81.46043 135.3727 80.837358 137.03399 80.972599 139.43467 C 81.194164 143.3644 83.283484 148.71568 86.783628 152.72112 z M 120.58803 148.67492 C 122.11568 147.91527 123.77683 146.77945 125.35164 145.43222 C 127.36818 143.70717 129.26339 141.65464 130.68918 139.75033 C 131.21374 139.04995 131.58462 138.40734 131.96617 137.77027 C 125.72583 137.05377 119.29419 138.83517 115.56616 141.38602 A 39.555441 39.555441 0 0 1 114.43265 142.40475 C 114.12189 142.67063 113.80392 142.93896 113.48567 143.1939 C 112.64488 144.14548 112.22888 145.03047 112.17998 145.66179 C 112.17698 145.70147 112.16663 145.73628 112.16563 145.77658 C 113.33043 145.68277 114.58149 145.75955 115.88182 146.00615 C 117.76944 146.36468 119.33147 147.36279 120.58803 148.67492 z M 105.72328 141.98865 C 107.40084 141.2454 109.28686 139.99089 111.06082 138.47334 C 113.07704 136.74858 114.95793 134.69546 116.38401 132.79144 C 116.90857 132.09077 117.29351 131.44875 117.67535 130.81139 C 111.34951 130.08512 104.82081 131.93553 101.1175 134.54192 C 99.465552 135.70441 98.489992 136.93402 98.090026 137.89941 C 99.076996 137.98372 100.11231 138.18719 101.16054 138.51638 C 103.10801 139.12755 104.60452 140.41266 105.72328 141.98865 z M 91.733764 134.47018 A 9.3284729 9.3284729 0 0 0 92.752488 134.05408 C 94.382569 133.26709 96.236795 131.83699 97.932195 130.15137 C 99.627598 128.46546 101.17553 126.51602 102.3084 124.75644 C 102.56075 124.36395 102.70471 124.03918 102.91103 123.66597 C 97.240117 123.92926 91.662829 126.16545 88.6202 128.68785 A 10.052732 10.052732 0 0 0 87.214075 130.10832 C 87.359387 130.16587 87.513845 130.2166 87.65887 130.2805 C 89.580439 131.12388 90.875705 132.68615 91.733764 134.47018 z M 77.729901 131.85881 A 7.6339303 7.6339303 0 0 1 78.332527 131.18444 C 79.192888 130.32638 80.28488 129.76183 81.503483 129.49135 A 8.7670783 8.7670783 0 0 1 82.005671 128.44393 L 70.900149 121.34156 L 68.102246 125.70342 L 77.729901 131.85881 z " /></g></g></svg>
